<?xml version="1.0" encoding="utf-8"?>
<!-- Generator: Adobe Illustrator 15.0.0, SVG Export Plug-In . SVG Version: 6.00 Build 0)  -->
<!DOCTYPE svg PUBLIC "-//W3C//DTD SVG 1.1//EN" "http://www.w3.org/Graphics/SVG/1.1/DTD/svg11.dtd">
<svg version="1.1" id="Layer_1" xmlns="http://www.w3.org/2000/svg" xmlns:xlink="http://www.w3.org/1999/xlink" x="0px" y="0px"
	 width="841.891px" height="595.281px" viewBox="0 0 841.891 595.281" enable-background="new 0 0 841.891 595.281"
	 xml:space="preserve">
<path display="none" fill="#FFFFFF" stroke="#000000" stroke-width="0.25" stroke-miterlimit="10" d="M480.334,184.66
	c2.962,0,5.469,1.037,7.52,3.11c2.051,2.074,3.076,4.568,3.076,7.484c0,2.917-1.037,5.4-3.11,7.451
	c-2.074,2.051-4.568,3.076-7.484,3.076c-2.917,0-5.4-1.025-7.451-3.076s-3.076-4.534-3.076-7.451c0-2.916,1.025-5.41,3.076-7.484
	C474.933,185.697,477.417,184.66,480.334,184.66z"/>
<path display="none" d="M580.713,184.66c2.962,0,5.469,1.037,7.52,3.11c2.051,2.074,3.076,4.568,3.076,7.484
	c0,2.917-1.037,5.4-3.11,7.451s-4.568,3.076-7.484,3.076c-2.917,0-5.4-1.025-7.451-3.076s-3.076-4.534-3.076-7.451
	c0-2.916,1.025-5.41,3.076-7.484C575.312,185.697,577.796,184.66,580.713,184.66z"/>
<text transform="matrix(1 0 0 1 148.7786 297.5427)" font-family="'ErasITC-Bold'" font-size="150" letter-spacing="3">66</text>
<text transform="matrix(1 0 0 1 351.6892 297.5427)" font-family="'TimesNewRomanPS-BoldMT'" font-size="150" letter-spacing="3">Vision</text>
<text transform="matrix(1 0 0 1 148.7786 297.5427)" font-family="'ErasITC-Bold'" font-size="150" letter-spacing="3">66</text>
<text transform="matrix(1 0 0 1 351.6892 297.5427)" font-family="'TimesNewRomanPS-BoldMT'" font-size="150" letter-spacing="3">Vision</text>
<path display="none" fill="#3B88C3" stroke="#000000" stroke-width="0.25" stroke-miterlimit="10" d="M502.357,281.64
	c0,8.836-7.164,16-16,16h-112c-8.836,0-16-7.164-16-16v-112c0-8.836,7.164-16,16-16h112c8.836,0,16,7.164,16,16V281.64z"/>
<path fill="#3B88C3" d="M223.945,220.002c2.369-0.41,4.625-0.614,6.769-0.614c5.24,0,9.946,1.024,14.116,3.075
	c4.17,2.052,7.324,5.229,9.468,9.536c2.142,4.308,3.213,9.104,3.213,14.391c0,3.51-0.49,6.894-1.47,10.15
	c-0.98,3.259-2.382,6.268-4.204,9.023c-1.823,2.758-4.091,5.219-6.802,7.383c-2.713,2.165-5.605,3.817-8.683,4.956
	c-3.076,1.14-6.347,1.993-9.81,2.563c-3.464,0.569-6.974,0.854-10.527,0.854c-8.249,0-15.415-1.379-21.499-4.136
	c-6.084-2.758-10.505-6.539-13.262-11.349c-2.758-4.808-4.136-10.104-4.136-15.894c0-3.326,0.376-6.974,1.128-10.938
	s2.415-8.691,4.989-14.185c2.574-5.491,6.106-11.814,10.597-18.97c4.487-7.154,9.058-13.694,13.706-19.619h35
	c-6.915,7.976-11.51,13.376-13.783,16.201c-3.23,4.057-6.268,8.236-9.11,12.544c-2.843,4.307-5.208,8.306-7.095,11.997
	c-1.889,3.69-3.492,7.313-4.812,10.868c-0.772,2.098-1.33,4.058-1.671,5.88c-0.342,1.822-0.512,3.531-0.512,5.127
	c0,2.143,0.432,4.192,1.294,6.151c0.863,1.96,2.159,3.51,3.885,4.648c1.727,1.14,3.794,1.709,6.203,1.709
	c2.271,0,4.281-0.535,6.031-1.606c1.75-1.069,3.056-2.552,3.919-4.442c0.863-1.892,1.295-3.886,1.295-5.981
	c0-3.69-1.333-6.38-3.999-8.065c-2.666-1.687-5.321-2.529-7.964-2.529c-0.82,0-2.051,0.114-3.691,0.342
	c1.049-1.686,3.009-4.944,5.88-9.775L223.945,220.002z"/>
<path fill="#3B88C3" d="M318.636,220.002c2.368-0.41,4.624-0.614,6.768-0.614c5.239,0,9.945,1.024,14.115,3.075
	c4.17,2.052,7.325,5.229,9.469,9.536c2.142,4.308,3.214,9.104,3.214,14.391c0,3.51-0.491,6.894-1.472,10.15
	c-0.979,3.259-2.382,6.268-4.203,9.023c-1.823,2.758-4.092,5.219-6.803,7.383c-2.712,2.165-5.604,3.817-8.682,4.956
	c-3.076,1.14-6.348,1.993-9.81,2.563c-3.465,0.569-6.973,0.854-10.526,0.854c-8.25,0-15.416-1.379-21.5-4.136
	c-6.084-2.758-10.505-6.539-13.263-11.349c-2.758-4.808-4.135-10.104-4.135-15.894c0-3.326,0.375-6.974,1.127-10.938
	s2.415-8.691,4.99-14.185c2.574-5.491,6.105-11.814,10.596-18.97c4.488-7.154,9.06-13.694,13.707-19.619h35
	c-6.915,7.976-11.51,13.376-13.783,16.201c-3.229,4.057-6.267,8.236-9.109,12.544c-2.843,4.307-5.208,8.306-7.097,11.997
	c-1.888,3.69-3.49,7.313-4.811,10.868c-0.773,2.098-1.331,4.058-1.672,5.88c-0.342,1.822-0.511,3.531-0.511,5.127
	c0,2.143,0.431,4.192,1.294,6.151c0.862,1.96,2.159,3.51,3.885,4.648c1.727,1.14,3.794,1.709,6.202,1.709
	c2.271,0,4.281-0.535,6.031-1.606c1.749-1.069,3.056-2.552,3.919-4.442c0.862-1.892,1.296-3.886,1.296-5.981
	c0-3.69-1.334-6.38-4-8.065c-2.666-1.687-5.321-2.529-7.963-2.529c-0.82,0-2.052,0.114-3.691,0.342
	c1.047-1.686,3.008-4.944,5.879-9.775L318.636,220.002z"/>
<path fill="#3B88C3" d="M460.495,186.847v2.528c-3.373,0.547-6.381,2.349-9.022,5.4c-1.914,2.279-4.763,7.634-8.545,16.063
	l-31.924,70.82h-2.256l-31.787-73.69c-3.828-8.888-6.393-14.104-7.69-15.654c-1.299-1.549-3.749-2.529-7.349-2.939v-2.528h44.434
	v2.528h-1.504c-4.011,0-6.745,0.502-8.203,1.504c-1.049,0.685-1.571,1.688-1.571,3.009c0,0.819,0.182,1.789,0.547,2.904
	c0.363,1.117,1.595,4.113,3.69,8.989l19.756,46.143l18.32-41.084c2.188-4.967,3.531-8.294,4.033-9.979
	c0.501-1.687,0.752-3.121,0.752-4.307c0-1.367-0.365-2.574-1.095-3.623c-0.729-1.049-1.801-1.847-3.213-2.394
	c-1.96-0.773-4.558-1.162-7.793-1.162v-2.528H460.495z"/>
<path fill="#3B88C3" d="M489.904,215.627v50.654c0,4.512,0.523,7.395,1.572,8.647c1.048,1.254,3.099,1.972,6.152,2.152v2.461
	h-34.521v-2.461c2.825-0.091,4.922-0.911,6.289-2.461c0.911-1.048,1.367-3.828,1.367-8.34v-37.324c0-4.512-0.524-7.394-1.572-8.646
	c-1.049-1.253-3.076-1.972-6.084-2.153v-2.529H489.904z"/>
<path fill="#FB9200" d="M547.749,213.849l1.025,21.807h-2.324c-2.779-6.471-5.663-10.892-8.646-13.262
	c-2.985-2.369-5.959-3.556-8.921-3.556c-1.869,0-3.464,0.627-4.785,1.881c-1.322,1.254-1.982,2.699-1.982,4.341
	c0,1.229,0.455,2.416,1.367,3.555c1.458,1.869,5.537,5.07,12.236,9.604s11.107,8.386,13.228,11.553
	c2.119,3.168,3.18,6.711,3.18,10.63c0,3.555-0.89,7.041-2.666,10.459c-1.777,3.418-4.284,6.039-7.521,7.861
	c-3.235,1.821-6.813,2.733-10.731,2.733c-3.055,0-7.134-0.957-12.236-2.871c-1.367-0.501-2.302-0.752-2.803-0.752
	c-1.504,0-2.758,1.141-3.761,3.418h-2.256l-1.094-22.969h2.324c2.051,6.016,4.864,10.527,8.441,13.535s6.962,4.512,10.151,4.512
	c2.188,0,3.977-0.672,5.366-2.017c1.39-1.344,2.085-2.975,2.085-4.889c0-2.188-0.684-4.077-2.051-5.674
	c-1.367-1.595-4.421-4.01-9.16-7.246c-6.973-4.83-11.484-8.521-13.535-11.073c-3.008-3.736-4.512-7.861-4.512-12.373
	c0-4.922,1.697-9.376,5.093-13.364c3.396-3.987,8.306-5.981,14.731-5.981c3.463,0,6.813,0.845,10.049,2.529
	c1.229,0.684,2.231,1.025,3.008,1.025c0.82,0,1.479-0.171,1.982-0.514c0.5-0.342,1.299-1.31,2.393-2.904L547.749,213.849
	L547.749,213.849z"/>
<path fill="#FB9200" d="M590.282,215.627v50.654c0,4.512,0.523,7.395,1.572,8.647c1.048,1.254,3.099,1.972,6.152,2.152v2.461
	h-34.521v-2.461c2.825-0.091,4.922-0.911,6.289-2.461c0.911-1.048,1.367-3.828,1.367-8.34v-37.324c0-4.512-0.524-7.394-1.572-8.646
	c-1.049-1.253-3.076-1.972-6.084-2.153v-2.529H590.282z"/>
<path fill="#FB9200" d="M637.874,213.713c5.561,0,10.732,1.437,15.519,4.308s8.419,6.95,10.903,12.235
	c2.482,5.287,3.726,11.074,3.726,17.363c0,9.069-2.302,16.657-6.904,22.764c-5.561,7.384-13.238,11.074-23.036,11.074
	c-9.616,0-17.021-3.372-22.218-10.117c-5.194-6.743-7.793-14.561-7.793-23.446c0-9.16,2.654-17.146,7.964-23.96
	C621.343,217.12,628.622,213.713,637.874,213.713z M638.148,218.566c-2.324,0-4.318,0.878-5.98,2.632
	c-1.664,1.755-2.759,5.219-3.281,10.391c-0.524,5.174-0.786,12.362-0.786,21.567c0,4.877,0.317,9.434,0.957,13.672
	c0.501,3.236,1.572,5.697,3.213,7.383c1.641,1.688,3.509,2.529,5.604,2.529c2.052,0,3.761-0.569,5.127-1.709
	c1.777-1.549,2.963-3.714,3.556-6.494c0.911-4.329,1.367-13.079,1.367-26.25c0-7.747-0.435-13.066-1.3-15.962
	c-0.865-2.894-2.143-5.001-3.827-6.323C641.611,219.045,640.062,218.566,638.148,218.566z"/>
<path fill="#FB9200" d="M707.342,215.627v8.271c3.28-3.555,6.426-6.142,9.434-7.759s6.243-2.428,9.707-2.428
	c4.146,0,7.588,1.151,10.322,3.452c2.733,2.302,4.557,5.161,5.469,8.579c0.729,2.598,1.094,7.588,1.094,14.971v24.884
	c0,4.922,0.444,7.986,1.333,9.193c0.89,1.208,2.745,1.973,5.571,2.29v2.461h-32.334v-2.461c2.415-0.317,4.146-1.321,5.195-3.008
	c0.729-1.139,1.094-3.965,1.094-8.477V237.16c0-5.24-0.205-8.545-0.615-9.912s-1.104-2.427-2.085-3.179
	c-0.979-0.752-2.063-1.128-3.247-1.128c-3.92,0-7.564,2.803-10.938,8.408v34.248c0,4.784,0.443,7.815,1.333,9.092
	c0.889,1.275,2.54,2.074,4.956,2.393v2.461h-32.334v-2.461c2.688-0.272,4.603-1.139,5.741-2.598
	c0.774-1.002,1.162-3.965,1.162-8.887v-36.095c0-4.83-0.443-7.838-1.333-9.022c-0.889-1.186-2.746-1.959-5.57-2.324v-2.529H707.342z
	"/>
<g id="Layer_2">
	<g>
		<path fill="#3B88C3" d="M490.099,188.633c-1.413,2.04-2.039,4.239-2.039,6.749c0,2.355,0.782,4.709,2.039,6.75
			c1.256-1.885,2.041-4.237,2.041-6.75C492.14,192.872,491.355,190.517,490.099,188.633z"/>
		<path fill="#3B88C3" d="M468.595,195.069c0,0.157,0,0.157,0,0.313c0.157,0.157,0.157,0.157,0.157,0.314s0.155,0.157,0.155,0.314
			v0.156c0,0.157,0.157,0.157,0.157,0.157l0.157,0.157l15.696,12.557c0.313,0.157,0.628,0.314,0.941,0.314
			c0.471,0,0.941-0.314,1.256-0.628c0.472-0.627,0.314-1.728-0.313-2.197l-0.785-0.628c0.629-0.314,1.257-0.941,1.885-1.412
			c-1.885-2.668-2.982-5.808-2.982-9.26c0-3.453,1.099-6.594,2.982-9.262c-0.471-0.471-1.256-0.94-1.885-1.411l0.785-0.629
			c0.785-0.471,0.785-1.568,0.313-2.196c-0.471-0.785-1.569-0.785-2.197-0.314l-15.696,12.558c-0.157,0-0.157,0.156-0.157,0.156
			c0,0.157-0.157,0.157-0.157,0.157v0.157c0,0.157-0.155,0.157-0.155,0.313C468.595,194.912,468.595,194.912,468.595,195.069
			S468.595,195.226,468.595,195.069z"/>
	</g>
</g>
<g transform="translate(0.722937, 0.722937)">
	<path display="none" opacity="0.2" fill="#1A237E" enable-background="new    " d="M570.334,194.499
		c0.498,1.236,1.253,2.409,2.264,3.404c0.675,0.674,1.413,1.22,2.184,1.67c1.558,0.899,3.308,1.349,5.057,1.349h0.018
		c0.016,0,0.048,0,0.063,0c-1.718-0.017-3.452-0.465-4.993-1.349c-0.787-0.45-1.525-0.996-2.184-1.67
		c-1.011-1.012-1.766-2.167-2.264-3.404c-1.172-2.89-0.964-6.197,0.594-8.943c-0.08,0.048-0.16,0.096-0.24,0.145
		C569.354,188.414,569.178,191.657,570.334,194.499z"/>
	<path display="none" opacity="0.2" fill="#1A237E" enable-background="new    " d="M583.259,201.757
		c-1.012,1.011-2.168,1.765-3.403,2.263c-1.236,0.498-2.537,0.755-3.838,0.755c1.365,0.016,2.713-0.225,3.998-0.755
		c1.236-0.498,2.408-1.252,3.403-2.263c0.675-0.675,1.221-1.414,1.67-2.184c0.835-1.477,1.285-3.115,1.333-4.769
		c-0.032,0.674-0.177,1.349-0.418,1.991c-0.225,0.964-0.577,1.895-1.076,2.778C584.495,200.359,583.934,201.098,583.259,201.757z"/>
	<path display="none" opacity="0.2" fill="#FFFFFF" enable-background="new    " d="M580.176,200.921
		c1.638,0,3.292-0.626,4.544-1.879c1.173-1.172,1.799-2.697,1.878-4.238c0-0.096,0.016-0.209,0.016-0.305s0-0.208-0.016-0.305
		c-0.079-1.542-0.705-3.05-1.878-4.239c-1.076-1.076-2.44-1.686-3.838-1.846c-0.176-0.016-0.368-0.032-0.545-0.032
		c1.542,0.08,3.05,0.706,4.223,1.878c1.172,1.172,1.798,2.697,1.878,4.239c0,0.097,0.016,0.209,0.016,0.305s0,0.209-0.016,0.305
		c-0.08,1.541-0.706,3.051-1.878,4.238c-1.236,1.236-2.843,1.847-4.464,1.879C580.111,200.921,580.143,200.921,580.176,200.921
		C580.16,200.921,580.176,200.921,580.176,200.921z"/>
	<path display="none" opacity="0.2" fill="#BF360C" enable-background="new    " d="M579.855,184.962
		c-1.236,0.498-2.408,1.253-3.405,2.264c-0.673,0.675-1.219,1.413-1.669,2.184c-0.835,1.477-1.284,3.115-1.332,4.769
		c-0.016,0.208-0.016,0.417,0,0.61c0.079,1.542,0.689,3.051,1.878,4.239c1.236,1.269,2.874,1.895,4.511,1.895h0.018
		c0.032,0,0.048,0,0.08,0c-1.622-0.017-3.228-0.643-4.464-1.879c-1.172-1.172-1.799-2.697-1.878-4.238
		c-0.016-0.209-0.016-0.417,0-0.61c0.048-1.653,0.497-3.292,1.332-4.769c0.45-0.787,0.996-1.524,1.67-2.183
		c1.012-1.012,2.167-1.766,3.403-2.264c1.236-0.498,2.537-0.739,3.837-0.739C582.488,184.207,581.14,184.449,579.855,184.962z"/>
	<path display="none" opacity="0.2" fill="#BF360C" enable-background="new    " d="M587.112,183.389
		c0.626,0.626,1.155,1.333,1.589,2.071c0.081,0.048,0.161,0.08,0.241,0.129c-0.45-0.788-0.995-1.525-1.67-2.184
		c-2.022-2.023-4.688-3.034-7.354-3.002C582.536,180.386,585.138,181.398,587.112,183.389z"/>
	<g transform="translate(129.686616, 69.401903)" display="none" opacity="0.2">
		<path display="inline" fill="#1A237E" d="M447.086,117.84c1.012-1.012,2.167-1.766,3.403-2.264
			c1.236-0.498,2.537-0.739,3.838-0.739c-1.365-0.016-2.714,0.225-3.998,0.739c-1.236,0.498-2.408,1.252-3.403,2.264
			c-0.675,0.674-1.221,1.413-1.671,2.183c-0.835,1.477-1.284,3.115-1.332,4.769c0.032-0.674,0.177-1.348,0.417-1.991
			c0.226-0.963,0.578-1.895,1.076-2.778C445.849,119.237,446.411,118.499,447.086,117.84z"/>
	</g>
	<g display="none" opacity="0.2">
		<path display="inline" fill="#FFFFFF" d="M572.758,183.389c-0.674,0.675-1.22,1.413-1.669,2.184
			c-0.787,0.45-1.525,0.995-2.185,1.67c-4.014,4.014-4.014,10.517,0,14.53c0.676,0.674,1.414,1.22,2.185,1.669
			c1.766,3.099,5.105,5.187,8.927,5.187c0.032,0,0.048,0,0.08,0c-3.74-0.033-7-2.056-8.767-5.058c1.51,0.803,3.18,1.205,4.849,1.205
			c-1.701-0.033-3.403-0.465-4.929-1.333c-0.786-0.449-1.524-0.996-2.184-1.669c-4.015-4.014-4.015-10.517,0-14.53
			c0.594-0.594,1.253-1.107,1.959-1.525c-1.493,2.713-1.67,5.956-0.514,8.798c0.497,1.236,1.252,2.409,2.264,3.405
			c0.675,0.673,1.413,1.22,2.185,1.669c1.541,0.884,3.29,1.333,5.04,1.333c-0.208,0-0.434-0.017-0.643-0.032
			c-1.477-0.112-2.938-0.562-4.271-1.316c-0.786-0.45-1.525-0.996-2.184-1.67c-1.011-1.012-1.766-2.167-2.264-3.404
			c-1.172-2.89-0.964-6.197,0.595-8.943c0.448-0.787,0.995-1.525,1.669-2.183c1.991-1.991,4.576-2.987,7.193-3.003
			C577.431,180.354,574.781,181.35,572.758,183.389z"/>
	</g>
	<g>
		<path fill="#FB9200" d="M584.56,189.955c1.172,1.172,1.798,2.697,1.878,4.239c0,0.097,0.016,0.209,0.016,0.305
			s0,0.209-0.016,0.305c-0.048,1.654-0.497,3.292-1.332,4.769c-0.449,0.787-0.996,1.525-1.67,2.184
			c-1.012,1.011-2.167,1.765-3.404,2.263c-2.89,1.172-6.181,0.963-8.927-0.594c1.75,3.115,5.09,5.203,8.911,5.203
			c3.82,0,7.16-2.087,8.927-5.203c0.851-1.493,1.349-3.227,1.349-5.074c0-1.364-0.272-2.665-0.754-3.853
			c-0.867-2.151-2.441-3.95-4.448-5.074c-1.413-0.802-3.034-1.284-4.769-1.333C581.879,188.157,583.387,188.783,584.56,189.955z"/>
		<g transform="translate(34.259000, 0.000000)">
			<path fill="#4285F4" d="M534.645,187.242c-4.014,4.014-4.014,10.517,0,14.53c0.676,0.674,1.414,1.22,2.185,1.669
				c2.745,1.558,6.037,1.75,8.927,0.578c1.236-0.498,2.408-1.252,3.403-2.263c0.675-0.675,1.221-1.414,1.67-2.184
				c0.835-1.477,1.285-3.115,1.333-4.769c-0.08,1.541-0.707,3.051-1.879,4.238c-1.236,1.253-2.89,1.879-4.527,1.879h-0.017
				c-1.75,0-3.499-0.449-5.073-1.349c-0.787-0.45-1.525-0.996-2.184-1.67c-1.011-1.012-1.766-2.167-2.264-3.404
				c-1.172-2.89-0.964-6.197,0.594-8.943C536.043,186.006,535.304,186.567,534.645,187.242z"/>
		</g>
		<path fill="#FFC107" d="M572.758,183.389c-0.674,0.675-1.22,1.413-1.669,2.184c-1.558,2.746-1.767,6.053-0.594,8.942
			c0.497,1.236,1.252,2.409,2.263,3.405c0.676,0.673,1.413,1.22,2.184,1.669c1.559,0.884,3.308,1.333,5.058,1.333
			c-1.637,0-3.275-0.626-4.527-1.879c-1.172-1.172-1.799-2.697-1.878-4.238c-0.016-0.209-0.016-0.417,0-0.61
			c0.048-1.653,0.497-3.292,1.332-4.769c0.45-0.787,0.996-1.524,1.67-2.183c1.012-1.012,2.167-1.766,3.403-2.264
			c2.89-1.172,6.198-0.964,8.927,0.594c-0.449-0.787-0.995-1.525-1.669-2.184C583.275,179.375,576.756,179.375,572.758,183.389z"/>
		<g transform="translate(46.548921, 68.678966)">
			<g>
				<g>
					<path d="M533.467,116.283c-1.236,0.498-2.408,1.252-3.403,2.264c-0.675,0.674-1.221,1.413-1.671,2.184
						c-0.835,1.477-1.284,3.114-1.332,4.769c0.08-1.542,0.69-3.051,1.878-4.239c1.156-1.156,2.682-1.783,4.207-1.863
						c0.112,0,0.209-0.016,0.321-0.016s0.209,0,0.321,0.016c1.733,0.049,3.354,0.53,4.769,1.333c1.99,1.139,3.58,2.922,4.447,5.073
						c0.481,1.188,0.755,2.489,0.755,3.854c0,1.846-0.498,3.58-1.35,5.074c0.787-0.45,1.525-0.996,2.185-1.67
						c4.014-4.014,4.014-10.517,0-14.53c-0.675-0.674-1.413-1.22-2.185-1.67C539.664,115.319,536.356,115.127,533.467,116.283z"/>
				</g>
			</g>
			<path fill="#3367D6" d="M533.467,116.283c-1.236,0.498-2.408,1.253-3.403,2.264c-0.675,0.675-1.221,1.413-1.671,2.184
				c-0.835,1.477-1.284,3.115-1.332,4.769c0.08-1.542,0.69-3.051,1.878-4.239c1.156-1.156,2.682-1.782,4.207-1.862
				c0.112,0,0.209-0.016,0.321-0.016s0.209,0,0.321,0.016c1.733,0.048,3.354,0.53,4.769,1.333c1.99,1.14,3.58,2.922,4.447,5.073
				c0.481,1.188,0.755,2.489,0.755,3.854c0,1.846-0.498,3.581-1.35,5.074c0.787-0.45,1.525-0.996,2.185-1.67
				c4.014-4.014,4.014-10.516,0-14.53c-0.675-0.674-1.413-1.22-2.185-1.669C539.664,115.32,536.356,115.127,533.467,116.283z"/>
		</g>
	</g>
	<g transform="translate(46.267935, 127.236822)" display="none" opacity="0.2">
		<path display="inline" fill="#1A237E" d="M543.429,67.262c-0.867-2.151-2.44-3.934-4.447-5.074
			c-1.414-0.802-3.034-1.284-4.769-1.333c-0.112,0-0.209-0.016-0.321-0.016c-0.032,0-0.049,0-0.08,0c0.08,0,0.16,0,0.24,0
			c1.734,0.048,3.355,0.53,4.769,1.333c1.99,1.14,3.581,2.922,4.448,5.073c0.481,1.188,0.754,2.489,0.754,3.854
			c0,1.846-0.498,3.581-1.349,5.074c0.08-0.049,0.16-0.096,0.241-0.145c0.802-1.461,1.268-3.147,1.268-4.945
			C544.183,69.751,543.911,68.451,543.429,67.262z"/>
	</g>
	<g transform="translate(0.000000, 125.790949)" display="none" opacity="0.2">
		<path display="inline" fill="#1A237E" d="M589.022,77.507c0.803-1.461,1.269-3.147,1.269-4.946c0-1.364-0.272-2.665-0.754-3.853
			c-0.867-2.151-2.441-3.95-4.448-5.074c-1.413-0.802-3.034-1.284-4.769-1.333c0.128,0,0.257,0.016,0.386,0.032
			c1.525,0.128,2.954,0.578,4.222,1.3c2.008,1.14,3.582,2.922,4.447,5.074c0.482,1.188,0.755,2.489,0.755,3.853
			c0,1.847-0.497,3.581-1.348,5.074c-1.751,3.083-5.058,5.17-8.847,5.203c0.031,0,0.048,0,0.08,0c3.82,0,7.16-2.087,8.927-5.203"/>
	</g>
	
		<linearGradient id="SVGID_1_" gradientUnits="userSpaceOnUse" x1="4.02" y1="590.0561" x2="4.105" y2="590.0123" gradientTransform="matrix(2.551150e-009 -56.8228 -110.1755 -4.946506e-009 65591.7813 415.4924)">
		<stop  offset="0" style="stop-color:#BF360C;stop-opacity:0.2"/>
		<stop  offset="1" style="stop-color:#BF360C;stop-opacity:0"/>
	</linearGradient>
	<path display="none" fill="url(#SVGID_1_)" d="M576.708,187.146c0.979-0.964,2.12-1.686,3.308-2.167
		c2.89-1.172,6.197-0.964,8.927,0.594c-0.45-0.787-0.995-1.525-1.67-2.184c-1.236-1.236-2.697-2.087-4.255-2.553L576.708,187.146z"
		/>
	<path display="none" opacity="0.2" fill="#1A237E" enable-background="new    " d="M588.782,185.572
		c0.786,0.45,1.525,0.995,2.184,1.67c4.014,4.014,4.014,10.517,0,14.53c-0.594,0.594-1.253,1.107-1.943,1.525
		c-0.031,0.048-0.048,0.096-0.08,0.144c0.787-0.449,1.525-0.996,2.184-1.669c4.015-4.014,4.015-10.517,0-14.53
		c-0.675-0.675-1.413-1.22-2.184-1.67c-1.574-0.899-3.339-1.349-5.09-1.333C585.555,184.255,587.257,184.689,588.782,185.572z"/>
</g>
</svg>
